<svg xmlns="http://www.w3.org/2000/svg" width="32" height="32" viewBox="0 0 24 24" fill="none">
  <g transform="translate(3, 3)">
    <path d="M18.984 10.5359C19.0927 8.71406 18.6449 6.90222 17.7001 5.34074C16.7552 3.77925 15.358 2.54193 13.6937 1.79289C12.0294 1.04386 10.1767 0.818517 8.38136 1.14676C6.58603 1.475 4.93292 2.34131 3.64132 3.63078C2.34971 4.92024 1.48066 6.57192 1.14945 8.3667C0.818237 10.1615 1.04051 12.0146 1.78679 13.6801C2.53307 15.3456 3.76808 16.7449 5.32799 17.6924C6.88791 18.6398 8.69901 19.0906 10.521 18.9849M17 19.9999V13.9999M14 16.9999L17 13.9999L20 16.9999M7.00004 7.99991H7.01004M13 7.99991H13.01" stroke="white" stroke-width="1.6" stroke-linecap="round" stroke-linejoin="round"/>
  </g>
  <g transform="translate(9.5, 15)">
    <path d="M1 1C1.658 1.64 2.56 2 3.5 2C4.44 2 5.342 1.64 6 1" stroke="white" stroke-width="1.6" stroke-linecap="round" stroke-linejoin="round"/>
  </g>
</svg>
