<svg xmlns="http://www.w3.org/2000/svg" height="40px" viewBox="0 -960 960 960" width="40px" fill="#eb5278"><path d="M666.38-120q-38.66 0-65.96-27.42-27.29-27.43-27.29-66.02 0-6.82 5.61-32.25L285.49-419.85q-13.11 15.54-31.89 24.41-18.78 8.88-40.93 8.88-38.27 0-65.47-27.43Q120-441.41 120-480t27.2-66.01q27.2-27.43 65.47-27.43 21.48 0 40.28 8.52 18.79 8.52 31.72 24.46l294.07-173.08q-2.77-7.92-4.19-16.14-1.42-8.22-1.42-16.88 0-38.59 27.47-66.02Q628.08-840 666.75-840q38.66 0 65.96 27.48Q760-785.05 760-746.38q0 38.66-27.42 65.96-27.43 27.29-66.02 27.29-21.72 0-39.86-8.96t-31.06-23.96L301.1-513.33q2.93 7.92 4.35 16.29 1.42 8.37 1.42 16.71 0 8.84-1.34 16.65-1.35 7.81-4.12 15.73l294.9 173.85q12.92-15 30.88-23.89 17.96-8.88 39.48-8.88 38.82 0 66.07 27.47Q760-251.92 760-213.25q0 38.66-27.48 65.96Q705.05-120 666.38-120Z"/></svg>