<svg xmlns="http://www.w3.org/2000/svg" height="40px" viewBox="0 -960 960 960" width="40px" fill="#FFFFFF"><path d="M440-438.51ZM122.57-140q-25.79 0-44.18-18.39T60-202.57v-471.48q0-25.44 18.39-44t44.18-18.56h132.3L328.46-820h240.36v50.26H351.23l-73.38 83.38H122.57q-5.39 0-8.85 3.59t-3.46 8.72v471.48q0 5.39 3.46 8.85t8.85 3.46h634.86q5.39 0 8.85-3.46t3.46-8.85v-366.25H820v366.25q0 25.79-18.57 44.18-18.56 18.39-44 18.39H122.57Zm647.17-546.77v-82.97h-82.97V-820h82.97v-83.38H820V-820h83.38v50.26H820v82.97h-50.26Zm-329.95 408q67.57 0 113.76-46.19 46.19-46.19 46.19-113.76 0-67.56-46.19-113.55-46.19-45.99-113.76-45.99-67.56 0-113.55 45.99-45.98 45.99-45.98 113.55 0 67.57 45.98 113.76 45.99 46.19 113.55 46.19Zm0-50.26q-46.82 0-78.05-31.43-31.23-31.44-31.23-78.26 0-46.82 31.23-78.05Q392.97-548 439.79-548q46.83 0 78.26 31.23 31.44 31.23 31.44 78.05 0 46.82-31.44 78.26-31.43 31.43-78.26 31.43Z"/></svg>