<svg xmlns="http://www.w3.org/2000/svg" height="40px" viewBox="0 -960 960 960" width="40px" fill="#FFFFFF"><path d="M666.38-120q-38.66 0-65.96-27.42-27.29-27.43-27.29-66.02 0-6.89 5.61-32.25L285.49-419.85q-13.01 15.6-31.92 24.45-18.9 8.84-40.9 8.84-38.27 0-65.47-27.55-27.2-27.54-27.2-66.01 0-38.47 27.2-65.89 27.2-27.43 65.3-27.43 21.65 0 40.45 8.52 18.79 8.52 31.72 24.46l294.07-173.08q-2.77-7.92-4.19-16.14-1.42-8.22-1.42-16.96 0-38.51 27.47-65.94Q628.08-840 666.75-840q38.66 0 65.96 27.48Q760-785.05 760-746.38q0 38.66-27.42 65.96-27.43 27.29-66.17 27.29-21.52 0-39.68-8.96-18.17-8.96-31.09-23.96L301.1-513.33q2.93 7.92 4.35 16.29 1.42 8.37 1.42 16.96 0 8.59-1.34 16.4-1.35 7.81-4.12 15.73l294.9 173.85q13.11-15 31.06-23.89 17.95-8.88 39.23-8.88 38.89 0 66.14 27.47Q760-251.92 760-213.25q0 38.66-27.48 65.96Q705.05-120 666.38-120Zm.3-33.85q25.37 0 42.42-17.16 17.05-17.17 17.05-42.54 0-25.37-17.16-42.42-17.17-17.06-42.54-17.06-25.37 0-42.42 17.17-17.06 17.16-17.06 42.54 0 25.37 17.17 42.42 17.16 17.05 42.54 17.05Zm-453.9-266.56q25.7 0 42.97-17.16 17.28-17.17 17.28-42.54 0-25.38-17.39-42.43t-43.09-17.05q-25.04 0-41.87 17.16-16.83 17.17-16.83 42.54 0 25.38 16.94 42.43t41.99 17.05Zm453.9-266.56q25.37 0 42.42-17.17 17.05-17.16 17.05-42.54 0-25.37-17.16-42.42-17.17-17.05-42.54-17.05-25.37 0-42.42 17.16-17.06 17.17-17.06 42.54 0 25.37 17.17 42.42 17.16 17.06 42.54 17.06Zm-.12 473.53ZM213.44-480Zm453.12-266.56Z"/></svg>