<svg xmlns="http://www.w3.org/2000/svg" data-name="레이어 1" viewBox="0 0 32 29.56"><path d="M16 0c2.89 0 5.57.56 8.03 1.69s4.4 2.66 5.83 4.59C31.29 8.22 32 10.33 32 12.62s-.71 4.4-2.14 6.35c-1.43 1.94-3.37 3.48-5.82 4.6-2.45 1.13-5.13 1.69-8.04 1.69-.92 0-1.86-.07-2.84-.2-4.24 2.94-6.49 4.43-6.77 4.47-.13.05-.26.04-.38-.02a.4.4 0 0 1-.11-.14c-.02-.06-.04-.11-.04-.16v-.07c.07-.46.61-2.4 1.63-5.81-2.3-1.14-4.12-2.66-5.47-4.55s-2.03-3.94-2.03-6.16.71-4.4 2.14-6.34S5.5 2.81 7.96 1.69C10.42.56 13.09 0 15.99 0Z"/></svg>