<svg xmlns="http://www.w3.org/2000/svg" height="40px" viewBox="0 -960 960 960" width="40px" fill="#434343"><path d="M698.21-50v-120h-120v-50.26h120v-120h50.25v120h120V-170h-120v120h-50.25ZM190.26-190.26v-579.48 579.48ZM202.57-140q-25.79 0-44.18-18.39T140-202.57v-554.86q0-25.79 18.39-44.18T202.57-820h554.86q25.79 0 44.18 18.39T820-757.43v359.92q-11.67-6.05-24.14-10.18-12.48-4.13-26.12-7.1v-342.64q0-4.62-3.84-8.47-3.85-3.84-8.47-3.84H202.57q-4.62 0-8.47 3.84-3.84 3.85-3.84 8.47v554.86q0 4.62 3.84 8.47 3.85 3.84 8.47 3.84h295.64q.41 13.05 2.07 25.74 1.67 12.68 5.21 24.52H202.57Zm110.02-152.21q12.74 0 21.62-8.89 8.87-8.9 8.87-21.65 0-12.74-8.9-21.61t-21.64-8.87q-12.74 0-21.62 8.9-8.87 8.9-8.87 21.64t8.9 21.61q8.9 8.87 21.64 8.87Zm0-157.28q12.74 0 21.62-8.9 8.87-8.89 8.87-21.64 0-12.74-8.9-21.61t-21.64-8.87q-12.74 0-21.62 8.9-8.87 8.89-8.87 21.64 0 12.74 8.9 21.61t21.64 8.87Zm0-157.28q12.74 0 21.62-8.9 8.87-8.9 8.87-21.64t-8.9-21.61q-8.9-8.87-21.64-8.87t-21.62 8.89q-8.87 8.9-8.87 21.65 0 12.74 8.9 21.61t21.64 8.87Zm127.46 151.9h229.59v-50.26H440.05v50.26Zm0-157.28h229.59v-50.26H440.05v50.26Zm0 314.56h84q6.85-14.26 15.6-26.42 8.76-12.17 19.02-23.84H440.05v50.26Z"/></svg>