<svg xmlns="http://www.w3.org/2000/svg" data-name="Layer 1" viewBox="0 0 25.8 31.71"><path d="M24.99 10.82c-2.11 1.31-3.42 3.54-3.42 6.03 0 2.8 1.68 5.35 4.23 6.4-.5 1.62-1.24 3.11-2.18 4.48-1.37 1.93-2.8 3.92-4.91 3.92s-2.74-1.24-5.22-1.24-3.29 1.31-5.28 1.31-3.36-1.8-4.91-4.04C1.24 24.56.06 20.95 0 17.16 0 11 3.98 7.71 7.96 7.71c2.11 0 3.85 1.37 5.16 1.37s3.23-1.43 5.6-1.43A7.43 7.43 0 0 1 25 10.82Zm-7.4-5.78c1.06-1.24 1.62-2.8 1.68-4.41 0-.19 0-.44-.06-.62a7.2 7.2 0 0 0-4.66 2.42 6.75 6.75 0 0 0-1.74 4.29c0 .19 0 .37.06.56.12 0 .31.06.44.06 1.68-.12 3.23-.99 4.29-2.3Z"/></svg>